<?xml version="1.0" standalone="no"?>
<!DOCTYPE svg PUBLIC "-//W3C//DTD SVG 20010904//EN"
 "http://www.w3.org/TR/2001/REC-SVG-20010904/DTD/svg10.dtd">
<svg version="1.0" xmlns="http://www.w3.org/2000/svg"
 width="309.000000pt" height="309.000000pt" viewBox="0 0 309.000000 309.000000"
 preserveAspectRatio="xMidYMid meet">

<g transform="translate(0.000000,309.000000) scale(0.100000,-0.100000)"
fill="#000000" stroke="none">
<path d="M1413 3080 c-364 -30 -686 -182 -954 -449 -274 -275 -417 -585 -449
-972 -28 -340 61 -676 257 -971 l65 -98 100 133 c176 232 291 353 503 533 39
32 80 70 92 84 42 48 84 140 99 216 47 248 111 362 241 432 110 58 164 67 413
67 248 0 331 -12 426 -64 43 -23 49 -31 52 -61 l3 -35 -83 -1 c-143 -1 -255
-50 -292 -129 -21 -43 -23 -149 -7 -287 17 -142 23 -292 12 -308 -8 -12 -12
-12 -29 3 -68 61 -238 75 -405 33 -118 -30 -284 -99 -397 -166 -47 -27 -82
-50 -79 -50 3 0 32 9 65 20 232 81 515 119 656 89 113 -24 165 -68 197 -166
72 -218 -60 -571 -314 -840 -99 -106 -106 -98 77 -83 384 32 695 176 969 449
132 133 217 248 291 395 216 429 216 953 0 1382 -142 283 -403 544 -686 686
-176 88 -366 141 -574 158 -64 5 -126 9 -137 8 -11 0 -61 -4 -112 -8z m423
-234 c72 -34 119 -78 154 -148 75 -152 13 -330 -142 -408 -202 -100 -438 48
-438 275 0 121 62 219 172 275 80 40 176 42 254 6z"/>
</g>
</svg>
