
<svg xmlns="http://www.w3.org/2000/svg" fill="none" viewBox="0 0 92 64" class="w-6 sm:w-6"><path fill="#EE2D3F" d="M91.533 0H0v3.877c0 .694.292 1.348.792 1.806l8.196 7.365c1.07 1.194 2.542 1.875 4.07 1.875h6.502s.014 5.389.014 8.536 1.288 6.544 1.288 6.544l-.878.878c-.94-1.291-5.097-6.412-7.857-6.412l-10.432-.056v13.312l17.879.208V64c4.6-4.582 9.216-9.15 13.808-13.742V25.317c0-3.714-.824-6.736-1.582-10.054l-.002-.006-.004-.022-.006-.02a.2.2 0 0 1-.012-.073q.001-.03.022-.066c.095-.142.484-.284.854-.354.282-.054.554-.067.674-.007 1.983.966 4.09 1.327 6.273 1.364 4.11.07 8.23.07 12.34 0 2.182-.037 4.286-.398 6.268-1.364.277-.14 1.361.11 1.528.361.041.07.014.111 0 .18l-.002.007c-.758 3.317-1.582 6.372-1.582 10.054v24.941C62.743 54.85 67.358 59.418 71.96 64V37.933l17.88-.208V24.413l-10.433.056c-2.76 0-6.916 5.121-7.857 6.412l-.878-.878s1.288-3.397 1.288-6.544.014-8.536.014-8.536h6.502c1.528 0 3-.68 4.07-1.876l8.196-7.364c.5-.458.792-1.112.792-1.806z"></path><path fill="#fff" d="M45.766 38.707a8.63 8.63 0 0 1-8.627-8.629 8.628 8.628 0 1 1 17.254 0 8.63 8.63 0 0 1-8.627 8.629"></path></svg>
