{"asset":{"generator":"Khronos glTF Spline I/O v0.0.1","version":"2.0"},"scenes":[{"nodes":[0]}],"nodes":[{"name":"","children":[1,2,3,4,5,6,7,8,9,10,11,12,13,14,15]},{"name":"Sphere","matrix":[0.8788070437332196,0.006815414929121343,0.47712863045960846,0,0.031882276686582736,0.996825010610962,-0.07296176158602338,0,-0.47611101679986156,0.07933125701638476,0.875799549749851,0,-152.3327584051291,371.3397571409382,115.33276189055363,1],"mesh":0},{"name":"Pyramid","matrix":[-0.7312293381894003,0.05074501713152208,0.6802415734189506,0,-0.3085709937997612,0.8647554289037752,-0.3962095278598203,0,-0.6083482528590037,-0.4996228491750712,-0.6166760996063401,0,-130.73416377290582,267.5,95.40097999704955,1],"mesh":1},{"name":"Cone","matrix":[-0.644200928666973,0.039270672396623,0.40775314387681805,0,0.3039851138545213,0.5551971835388625,0.4267889249881747,0,-0.274586712363778,0.5225069858167214,-0.4841365878688334,0,15.068885620209393,219.6619218514771,181.09286454673133,1],"mesh":2},{"name":"Dodecahedron","matrix":[-0.27204823803963646,-0.3329377591821116,-0.6310964539666359,0,0.07344440260456302,0.8842390038209259,-0.49814409645316565,0,0.7114017023703244,-0.17873190633537675,-0.21237479379924226,0,91.09126882771614,102.39630474843574,182.31307999903913,1],"mesh":3},{"name":"Helix","matrix":[0.5240844815881401,0.4594179893948482,0.12341566394382111,0,-0.41623807865145956,0.5317680474331461,-0.21196571547655796,0,-0.23030887296593697,0.08437246990187634,0.6639276830224989,0,74.20792871473472,285.4356041335249,171.96447767936877,1],"mesh":4},{"name":"Cylinder 5","matrix":[0.12695671160895278,-0.024442495239092775,-0.002807269152957841,0,-0.09191837211752113,-0.5473258751404314,0.6085472193016325,0,-0.019925415993715688,-0.09349145385874263,-0.0870956302521916,0,121.54634128421611,351.1275009048799,273.78410658811845,1],"mesh":5},{"name":"Cylinder 4","matrix":[0.11002795529887845,-0.02444249523909279,0.06340139143113467,0,0.038550679194032676,-0.7429761241221947,-0.35333361426383236,0,0.06767963957422293,0.050169874379407876,-0.09811102409019982,0,-38.335263307818146,72.89349492420106,164.2342697274498,1],"mesh":6},{"name":"Cylinder 3","matrix":[0.02701150154627097,-0.009069184291059077,0.12614060264910584,0,0.7108399818499094,-0.37541301790176956,-0.17920910982475075,0,0.05946954471359248,0.1147457321720223,-0.004484769340133366,0,-195.70278096674076,23.24417120067131,58.623634220063856,1],"mesh":7},{"name":"Cylinder 2","matrix":[0.060539683286737964,-0.020505611589686418,0.11241792382464781,0,-0.37365042695158385,-0.7308335526284713,0.06791167530012103,0,0.09806288425404748,-0.05599250432358707,-0.06302248128660089,0,-29.614891142885597,345.6588627948563,71.81705767039186,1],"mesh":8},{"name":"Cylinder","matrix":[-0.026529650964924437,0.1265520221613487,0.002021450647736842,0,0.8036664260338867,0.1694542302573267,-0.06123608710941793,0,-0.009825073859199946,-1.6151915751781058e-17,-0.12894491412936462,0,-258.16066712389875,179.37807444809158,48.50755185617244,1],"mesh":9},{"name":"Cube 2","matrix":[0.22570598521298377,-1.2902511399478487,-1.028785159974761,0,1.326119622721733,-0.476166592078174,0.8881228654319243,0,-0.9821169257035471,-0.9394719121580569,0.9627715054958126,0,196.20171423384386,223.21960185208576,439.93883933562074,1],"mesh":10},{"name":"Cube 3","matrix":[0.16582643203143907,-0.7444583965260839,-0.6467482433540372,0,0.7962004525000401,-0.28588978669959453,0.5332277836906016,0,-0.5818646181702863,-0.6033645048415355,0.5453300288988998,0,-264.3688234764619,301.5471285956622,-8.680543292350166,1],"mesh":11},{"name":"Cube","matrix":[-0.3584413020552668,-0.9328943056049103,0.03504350939692141,0,0.7962004525000425,-0.28588978669958615,0.5332277836906044,0,-0.48742658156860164,0.21903251911712307,0.8452455756462459,0,-157.56779371870653,129.16848850919445,160.2018404558928,1],"mesh":12},{"name":"Directional Light","translation":[200,300,300],"rotation":[-0.4062840720729887,0.12301291902225084,-0.2623788760260691,0.8665785595944042],"extensions":{"KHR_lights_punctual":{"light":0}}},{"name":"Personal Camera","camera":0,"translation":[-316.9570511888988,300.5826821892165,656.5032499184382],"rotation":[-0.05886399904868733,-0.2694080318497025,-0.01650056285265601,0.9610838014535524]}],"cameras":[{"type":"orthographic","orthographic":{"xmag":1920,"ymag":880,"zfar":100000,"znear":-100000}}],"meshes":[{"primitives":[{"attributes":{"POSITION":1,"NORMAL":2,"TEXCOORD_0":3},"indices":0}]},{"primitives":[{"attributes":{"POSITION":5,"NORMAL":6,"TEXCOORD_0":7},"indices":4}]},{"primitives":[{"attributes":{"POSITION":9,"NORMAL":10,"TEXCOORD_0":11},"indices":8}]},{"primitives":[{"attributes":{"POSITION":12,"NORMAL":13,"TEXCOORD_0":14}}]},{"primitives":[{"attributes":{"POSITION":16,"NORMAL":17,"TEXCOORD_0":18},"indices":15}]},{"primitives":[{"attributes":{"POSITION":20,"NORMAL":21,"TEXCOORD_0":22},"indices":19}]},{"primitives":[{"attributes":{"POSITION":24,"NORMAL":25,"TEXCOORD_0":26},"indices":23}]},{"primitives":[{"attributes":{"POSITION":28,"NORMAL":29,"TEXCOORD_0":30},"indices":27}]},{"primitives":[{"attributes":{"POSITION":32,"NORMAL":33,"TEXCOORD_0":34},"indices":31}]},{"primitives":[{"attributes":{"POSITION":36,"NORMAL":37,"TEXCOORD_0":38},"indices":35}]},{"primitives":[{"attributes":{"POSITION":40,"NORMAL":41,"TEXCOORD_0":42},"indices":39}]},{"primitives":[{"attributes":{"POSITION":44,"NORMAL":45,"TEXCOORD_0":46},"indices":43}]},{"primitives":[{"attributes":{"POSITION":48,"NORMAL":49,"TEXCOORD_0":50},"indices":47}]}],"buffers":[{"uri":"data:application/octet-stream;base64,","byteLength":183584},{"uri":"data:application/octet-stream;base64,","byteLength":19408},{"uri":"data:application/octet-stream;base64,","byteLength":14848},{"uri":"data:application/octet-stream;base64,","byteLength":3456},{"uri":"data:application/octet-stream;base64,","byteLength":219656},{"uri":"data:application/octet-stream;base64,","byteLength":22784},{"uri":"data:application/octet-stream;base64,","byteLength":22784},{"uri":"data:application/octet-stream;base64,","byteLength":22784},{"uri":"data:application/octet-stream;base64,","byteLength":22784},{"uri":"data:application/octet-stream;base64,","byteLength":22784},{"uri":"data:application/octet-stream;base64,","byteLength":840},{"uri":"data:application/octet-stream;base64,","byteLength":840},{"uri":"data:application/octet-stream;base64,","byteLength":840}],"bufferViews":[{"buffer":0,"byteOffset":0,"byteLength":48384,"target":34963},{"buffer":0,"byteOffset":48384,"byteLength":50700,"target":34962},{"buffer":0,"byteOffset":99084,"byteLength":50700,"target":34962},{"buffer":0,"byteOffset":149784,"byteLength":33800,"target":34962},{"buffer":1,"byteOffset":0,"byteLength":3888,"target":34963},{"buffer":1,"byteOffset":3888,"byteLength":5820,"target":34962},{"buffer":1,"byteOffset":9708,"byteLength":5820,"target":34962},{"buffer":1,"byteOffset":15528,"byteLength":3880,"target":34962},{"buffer":2,"byteOffset":0,"byteLength":3264,"target":34963},{"buffer":2,"byteOffset":3264,"byteLength":4344,"target":34962},{"buffer":2,"byteOffset":7608,"byteLength":4344,"target":34962},{"buffer":2,"byteOffset":11952,"byteLength":2896,"target":34962},{"buffer":3,"byteOffset":0,"byteLength":1296,"target":34962},{"buffer":3,"byteOffset":1296,"byteLength":1296,"target":34962},{"buffer":3,"byteOffset":2592,"byteLength":864,"target":34962},{"buffer":4,"byteOffset":0,"byteLength":57960,"target":34963},{"buffer":4,"byteOffset":57960,"byteLength":60636,"target":34962},{"buffer":4,"byteOffset":118596,"byteLength":60636,"target":34962},{"buffer":4,"byteOffset":179232,"byteLength":40424,"target":34962},{"buffer":5,"byteOffset":0,"byteLength":6144,"target":34963},{"buffer":5,"byteOffset":6144,"byteLength":6240,"target":34962},{"buffer":5,"byteOffset":12384,"byteLength":6240,"target":34962},{"buffer":5,"byteOffset":18624,"byteLength":4160,"target":34962},{"buffer":6,"byteOffset":0,"byteLength":6144,"target":34963},{"buffer":6,"byteOffset":6144,"byteLength":6240,"target":34962},{"buffer":6,"byteOffset":12384,"byteLength":6240,"target":34962},{"buffer":6,"byteOffset":18624,"byteLength":4160,"target":34962},{"buffer":7,"byteOffset":0,"byteLength":6144,"target":34963},{"buffer":7,"byteOffset":6144,"byteLength":6240,"target":34962},{"buffer":7,"byteOffset":12384,"byteLength":6240,"target":34962},{"buffer":7,"byteOffset":18624,"byteLength":4160,"target":34962},{"buffer":8,"byteOffset":0,"byteLength":6144,"target":34963},{"buffer":8,"byteOffset":6144,"byteLength":6240,"target":34962},{"buffer":8,"byteOffset":12384,"byteLength":6240,"target":34962},{"buffer":8,"byteOffset":18624,"byteLength":4160,"target":34962},{"buffer":9,"byteOffset":0,"byteLength":6144,"target":34963},{"buffer":9,"byteOffset":6144,"byteLength":6240,"target":34962},{"buffer":9,"byteOffset":12384,"byteLength":6240,"target":34962},{"buffer":9,"byteOffset":18624,"byteLength":4160,"target":34962},{"buffer":10,"byteOffset":0,"byteLength":72,"target":34963},{"buffer":10,"byteOffset":72,"byteLength":288,"target":34962},{"buffer":10,"byteOffset":360,"byteLength":288,"target":34962},{"buffer":10,"byteOffset":648,"byteLength":192,"target":34962},{"buffer":11,"byteOffset":0,"byteLength":72,"target":34963},{"buffer":11,"byteOffset":72,"byteLength":288,"target":34962},{"buffer":11,"byteOffset":360,"byteLength":288,"target":34962},{"buffer":11,"byteOffset":648,"byteLength":192,"target":34962},{"buffer":12,"byteOffset":0,"byteLength":72,"target":34963},{"buffer":12,"byteOffset":72,"byteLength":288,"target":34962},{"buffer":12,"byteOffset":360,"byteLength":288,"target":34962},{"buffer":12,"byteOffset":648,"byteLength":192,"target":34962}],"accessors":[{"bufferView":0,"byteOffset":0,"componentType":5123,"count":24192,"type":"SCALAR","min":[0],"max":[4224]},{"bufferView":1,"byteOffset":0,"componentType":5126,"count":4225,"type":"VEC3","min":[-52,-52,-52],"max":[52,52,52]},{"bufferView":2,"byteOffset":0,"componentType":5126,"count":4225,"type":"VEC3","min":[-1,-1,-1],"max":[1,1,1]},{"bufferView":3,"byteOffset":0,"componentType":5126,"count":4225,"type":"VEC2","min":[-0.0078125,0],"max":[1.0078125,1]},{"bufferView":4,"byteOffset":0,"componentType":5123,"count":1944,"type":"SCALAR","min":[0],"max":[484]},{"bufferView":5,"byteOffset":0,"componentType":5126,"count":485,"type":"VEC3","min":[-24.99554443359375,-39.5,-24.99554443359375],"max":[24.99554443359375,25.5,24.99554443359375]},{"bufferView":6,"byteOffset":0,"componentType":5126,"count":485,"type":"VEC3","min":[-0.994903028011322,-1,-0.994903028011322],"max":[0.994903028011322,1,0.994903028011322]},{"bufferView":7,"byteOffset":0,"componentType":5126,"count":485,"type":"VEC2","min":[0,0],"max":[0,0]},{"bufferView":8,"byteOffset":0,"componentType":5123,"count":1632,"type":"SCALAR","min":[0],"max":[361]},{"bufferView":9,"byteOffset":0,"componentType":5126,"count":362,"type":"VEC3","min":[-41.5,-41.5,-41.5],"max":[41.5,41.5,41.5]},{"bufferView":10,"byteOffset":0,"componentType":5126,"count":362,"type":"VEC3","min":[-0.8944271802902222,-1,-0.8944271802902222],"max":[0.8944271802902222,0.4472135901451111,0.8944271802902222]},{"bufferView":11,"byteOffset":0,"componentType":5126,"count":362,"type":"VEC2","min":[0,0],"max":[1,1]},{"bufferView":12,"byteOffset":0,"componentType":5126,"count":108,"type":"VEC3","min":[-42.50484085083008,-63.05663299560547,-42.50484085083008],"max":[42.50484085083008,63.05663299560547,42.50484085083008]},{"bufferView":13,"byteOffset":0,"componentType":5126,"count":108,"type":"VEC3","min":[-0.9230985641479492,-0.7370818853378296,-0.8506508469581604],"max":[0.9230985641479492,0.7370818853378296,0.8506508469581604]},{"bufferView":14,"byteOffset":0,"componentType":5126,"count":108,"type":"VEC2","min":[0,0.11613976210355759],"max":[1.125,0.8838602304458618]},{"bufferView":15,"byteOffset":0,"componentType":5123,"count":28980,"type":"SCALAR","min":[1],"max":[5051]},{"bufferView":16,"byteOffset":0,"componentType":5126,"count":5053,"type":"VEC3","min":[-46,-109.01607513427734,-46],"max":[46,109.01394653320312,46]},{"bufferView":17,"byteOffset":0,"componentType":5126,"count":5053,"type":"VEC3","min":[-1,-0.9824565649032593,-1],"max":[1,0.985126793384552,1]},{"bufferView":18,"byteOffset":0,"componentType":5126,"count":5053,"type":"VEC2","min":[0,0],"max":[1,1]},{"bufferView":19,"byteOffset":0,"componentType":5123,"count":3072,"type":"SCALAR","min":[0],"max":[519]},{"bufferView":20,"byteOffset":0,"componentType":5126,"count":520,"type":"VEC3","min":[-50,-50,-50],"max":[50,50,50]},{"bufferView":21,"byteOffset":0,"componentType":5126,"count":520,"type":"VEC3","min":[-1,-1,-1],"max":[1,1,1]},{"bufferView":22,"byteOffset":0,"componentType":5126,"count":520,"type":"VEC2","min":[0,0],"max":[1,1]},{"bufferView":23,"byteOffset":0,"componentType":5123,"count":3072,"type":"SCALAR","min":[0],"max":[519]},{"bufferView":24,"byteOffset":0,"componentType":5126,"count":520,"type":"VEC3","min":[-50,-50,-50],"max":[50,50,50]},{"bufferView":25,"byteOffset":0,"componentType":5126,"count":520,"type":"VEC3","min":[-1,-1,-1],"max":[1,1,1]},{"bufferView":26,"byteOffset":0,"componentType":5126,"count":520,"type":"VEC2","min":[0,0],"max":[1,1]},{"bufferView":27,"byteOffset":0,"componentType":5123,"count":3072,"type":"SCALAR","min":[0],"max":[519]},{"bufferView":28,"byteOffset":0,"componentType":5126,"count":520,"type":"VEC3","min":[-50,-50,-50],"max":[50,50,50]},{"bufferView":29,"byteOffset":0,"componentType":5126,"count":520,"type":"VEC3","min":[-1,-1,-1],"max":[1,1,1]},{"bufferView":30,"byteOffset":0,"componentType":5126,"count":520,"type":"VEC2","min":[0,0],"max":[1,1]},{"bufferView":31,"byteOffset":0,"componentType":5123,"count":3072,"type":"SCALAR","min":[0],"max":[519]},{"bufferView":32,"byteOffset":0,"componentType":5126,"count":520,"type":"VEC3","min":[-50,-50,-50],"max":[50,50,50]},{"bufferView":33,"byteOffset":0,"componentType":5126,"count":520,"type":"VEC3","min":[-1,-1,-1],"max":[1,1,1]},{"bufferView":34,"byteOffset":0,"componentType":5126,"count":520,"type":"VEC2","min":[0,0],"max":[1,1]},{"bufferView":35,"byteOffset":0,"componentType":5123,"count":3072,"type":"SCALAR","min":[0],"max":[519]},{"bufferView":36,"byteOffset":0,"componentType":5126,"count":520,"type":"VEC3","min":[-50,-50,-50],"max":[50,50,50]},{"bufferView":37,"byteOffset":0,"componentType":5126,"count":520,"type":"VEC3","min":[-1,-1,-1],"max":[1,1,1]},{"bufferView":38,"byteOffset":0,"componentType":5126,"count":520,"type":"VEC2","min":[0,0],"max":[1,1]},{"bufferView":39,"byteOffset":0,"componentType":5123,"count":36,"type":"SCALAR","min":[0],"max":[23]},{"bufferView":40,"byteOffset":0,"componentType":5126,"count":24,"type":"VEC3","min":[-50,-50,-50],"max":[50,50,50]},{"bufferView":41,"byteOffset":0,"componentType":5126,"count":24,"type":"VEC3","min":[-1,-1,-1],"max":[1,1,1]},{"bufferView":42,"byteOffset":0,"componentType":5126,"count":24,"type":"VEC2","min":[0,0],"max":[1,1]},{"bufferView":43,"byteOffset":0,"componentType":5123,"count":36,"type":"SCALAR","min":[0],"max":[23]},{"bufferView":44,"byteOffset":0,"componentType":5126,"count":24,"type":"VEC3","min":[-50,-50,-50],"max":[50,50,50]},{"bufferView":45,"byteOffset":0,"componentType":5126,"count":24,"type":"VEC3","min":[-1,-1,-1],"max":[1,1,1]},{"bufferView":46,"byteOffset":0,"componentType":5126,"count":24,"type":"VEC2","min":[0,0],"max":[1,1]},{"bufferView":47,"byteOffset":0,"componentType":5123,"count":36,"type":"SCALAR","min":[0],"max":[23]},{"bufferView":48,"byteOffset":0,"componentType":5126,"count":24,"type":"VEC3","min":[-50,-50,-50],"max":[50,50,50]},{"bufferView":49,"byteOffset":0,"componentType":5126,"count":24,"type":"VEC3","min":[-1,-1,-1],"max":[1,1,1]},{"bufferView":50,"byteOffset":0,"componentType":5126,"count":24,"type":"VEC2","min":[0,0],"max":[1,1]}],"extensions":{"KHR_lights_punctual":{"lights":[{"type":"directional","name":"Directional Light","color":[1,1,1],"intensity":0.7}]}},"extensionsUsed":["KHR_lights_punctual"]}